<svg preserveAspectRatio="none" width="100%" height="100%" overflow="visible" style="display: block;" viewBox="0 0 99 69.8206" fill="none" xmlns="http://www.w3.org/2000/svg">
<g id="Group 2">
<path id="Vector" d="M18.3503 7.53492C19.3591 7.89121 20.3942 7.28489 20.713 6.26604C20.9831 5.40509 21.1878 4.525 21.3256 3.63326C21.3756 3.30698 21.4118 2.94944 21.2418 2.66691C21.0718 2.38438 20.7418 2.24811 20.4417 2.13435C18.2409 1.31236 15.9151 0.875104 13.566 0.841714C11.6245 0.795459 8.81549 1.15175 7.67037 2.65941C6.9853 3.55825 6.13772 5.85474 5.90894 7.25489C5.70892 8.47627 6.09897 10.2552 6.71528 11.2653C7.48786 12.5354 8.66798 14.6044 9.94187 15.9383C10.9907 17.0359 12.1646 18.7636 12.4421 19.2099C13.4422 20.8026 14.2411 21.2489 13.9135 22.9403C13.8557 23.3254 13.6989 23.689 13.4585 23.9954C13.0559 24.4655 12.4046 24.6392 11.7883 24.6955C10.4019 24.8205 9.17678 24.3904 7.8679 23.7541L7.80914 23.7166L3.71622 21.4939C3.62528 21.4414 3.52434 21.4086 3.41993 21.3976C3.13211 21.3777 2.84431 21.4365 2.58734 21.5676C1.32346 22.2827 0.54838 23.3553 0.0558283 24.7242C-0.421722 26.9595 2.26856 28.5196 4.15251 29.5997C6.03646 30.6799 8.21918 31.1762 10.3907 31.2874C12.5009 31.3912 15.0912 31.4124 16.7401 30.091C17.9102 29.1534 19.7016 27.552 20.2029 26.1381C21.1018 23.5966 21.1493 21.4064 19.4754 18.8611C18.4828 17.351 17.4564 15.8608 16.3625 14.4244C15.3449 13.0843 13.9673 11.9154 13.2222 10.3927C12.7809 9.49012 12.0071 8.43751 13.1184 7.22864C13.906 6.3723 16.1475 6.97861 17.2439 7.24739L18.3503 7.53492Z" fill="var(--fill-0, #009945)"/>
<path id="Vector_2" d="M95.7363 8.92871C96.7227 9.3425 97.7916 8.79744 98.1691 7.79734C98.4869 6.95317 98.7413 6.08652 98.9304 5.20456C98.9992 4.88078 99.0554 4.52699 98.9029 4.23446C98.7504 3.94193 98.4329 3.78566 98.1291 3.66065C95.9783 2.71314 93.6802 2.14349 91.3359 1.97672C89.4007 1.81796 86.5779 2.01423 85.3452 3.45313C84.6114 4.31072 83.6326 6.55471 83.3238 7.93985C83.0538 9.14748 83.3425 10.9402 83.9001 11.989C84.5977 13.3029 85.6578 15.4344 86.8529 16.8395C87.838 17.9959 88.9094 19.7886 89.1619 20.2499C90.0632 21.8976 90.8408 22.3889 90.412 24.0578C90.3326 24.439 90.1555 24.7931 89.8982 25.0854C89.4682 25.5317 88.8081 25.668 88.1893 25.6892C86.7991 25.7367 85.6003 25.2354 84.3301 24.5241L84.2739 24.4841L80.3147 22.0301C80.227 21.9715 80.1276 21.9327 80.0234 21.9163C79.7373 21.881 79.4468 21.9242 79.1833 22.0413C77.8807 22.6827 77.0444 23.709 76.4743 25.0416C75.8705 27.2456 78.4658 28.9583 80.286 30.1484C82.1062 31.3386 84.2576 31.9486 86.4191 32.1812C88.5193 32.4062 91.1058 32.5749 92.8273 31.3511C94.0487 30.476 95.9301 28.9858 96.5102 27.6007C97.554 25.1142 97.7265 22.9302 96.2014 20.2924C95.2975 18.7285 94.3574 17.1846 93.3486 15.6857C92.4085 14.2893 91.0984 13.0441 90.4445 11.4815C90.0545 10.5539 89.3432 9.45876 90.522 8.31614C91.3571 7.50605 93.5586 8.24113 94.6362 8.56617L95.7363 8.92871Z" fill="var(--fill-0, #009945)"/>
<path id="Vector_3" d="M35.0394 32.8359L34.6881 22.7098C34.681 22.5083 34.6342 22.3101 34.5504 22.1267C34.4666 21.9433 34.3474 21.7782 34.1997 21.6409C34.052 21.5037 33.8786 21.3969 33.6896 21.3268C33.5005 21.2566 33.2995 21.2245 33.0979 21.2321C32.6927 21.2471 32.3099 21.4221 32.0334 21.7188C31.7569 22.0154 31.6093 22.4095 31.6228 22.8148L31.9766 32.9659C31.9908 33.3711 31.8437 33.7653 31.5676 34.0622C31.2916 34.3592 30.9091 34.5345 30.5039 34.5498L26.8498 34.6911C26.4445 34.7066 26.0495 34.5609 25.7515 34.2858C25.4534 34.0107 25.2765 33.6287 25.2596 33.2234L24.1345 5.75552C24.1256 5.55417 24.1566 5.35304 24.2256 5.16367C24.2946 4.9743 24.4003 4.80042 24.5366 4.65199C24.673 4.50356 24.8373 4.3835 25.0201 4.29871C25.203 4.21391 25.4008 4.16605 25.6022 4.15785L29.26 4.01659C29.663 4.00094 30.0558 4.14484 30.3533 4.41704C30.6507 4.68924 30.8289 5.06777 30.849 5.47049L31.2603 13.6589C31.2807 14.0615 31.4589 14.4398 31.7563 14.7119C32.0537 14.9841 32.4463 15.1281 32.8492 15.1128C33.0517 15.1049 33.2507 15.057 33.4346 14.9717C33.6184 14.8864 33.7836 14.7655 33.9204 14.616C34.0573 14.4665 34.1631 14.2913 34.2318 14.1006C34.3005 13.9099 34.3306 13.7075 34.3206 13.5051L33.913 5.39548C33.9021 5.1926 33.9317 4.98957 34 4.79822C34.0683 4.60688 34.174 4.43104 34.3109 4.28095C34.4479 4.13086 34.6133 4.00951 34.7976 3.92399C34.9819 3.83847 35.1814 3.79048 35.3844 3.78281L39.0098 3.6428C39.4151 3.62723 39.8101 3.77296 40.1082 4.04806C40.4062 4.32316 40.5831 4.70519 40.6 5.11045L41.7251 32.5783C41.7335 32.7797 41.702 32.9807 41.6326 33.1699C41.5631 33.3591 41.457 33.5327 41.3203 33.6807C41.1836 33.8288 41.019 33.9484 40.836 34.0328C40.6529 34.1171 40.4551 34.1645 40.2537 34.1723L36.6183 34.3123C36.2135 34.3248 35.8201 34.1765 35.5242 33.8998C35.2284 33.6232 35.0541 33.2407 35.0394 32.8359Z" fill="var(--fill-0, #009945)"/>
<path id="Vector_4" d="M51.9345 25.6605L52.1495 31.1123C52.167 31.547 52.3563 31.957 52.6757 32.2523C52.9952 32.5476 53.4187 32.7041 53.8534 32.6875L57.9376 32.5262C58.1529 32.5175 58.3677 32.5514 58.5699 32.6258C58.7721 32.7002 58.9576 32.8137 59.1159 32.9599C59.2742 33.1061 59.402 33.2821 59.4922 33.4777C59.5824 33.6734 59.6332 33.8849 59.6415 34.1002L59.754 36.9442C59.7626 37.1596 59.7286 37.3746 59.6541 37.5768C59.5795 37.7791 59.4659 37.9647 59.3196 38.123C59.1733 38.2814 58.9973 38.4094 58.8016 38.4997C58.6059 38.59 58.3942 38.6409 58.1789 38.6494L47.4627 39.0719C47.2475 39.0807 47.0326 39.0468 46.8304 38.9724C46.6282 38.898 46.4427 38.7845 46.2844 38.6383C46.1262 38.4921 45.9983 38.3161 45.9081 38.1205C45.8179 37.9248 45.7672 37.7133 45.7588 37.498L44.4974 5.59842C44.4887 5.38309 44.5225 5.16815 44.5969 4.9659C44.6713 4.76364 44.7849 4.57802 44.931 4.41966C45.0772 4.26131 45.2531 4.1333 45.4488 4.04298C45.6445 3.95265 45.856 3.90177 46.0713 3.89324L56.6425 3.47569C57.0774 3.45878 57.5012 3.61516 57.8209 3.91049C58.1406 4.20582 58.3301 4.61597 58.3476 5.05086L58.4601 7.89491C58.4771 8.32983 58.3207 8.75368 58.0254 9.07339C57.73 9.3931 57.3199 9.58253 56.885 9.60009L52.9471 9.7551C52.5126 9.77299 52.103 9.96239 51.808 10.2818C51.5129 10.6012 51.3566 11.0245 51.3731 11.459L51.5719 16.4746C51.5803 16.6898 51.631 16.9014 51.7212 17.097C51.8114 17.2927 51.9393 17.4686 52.0976 17.6148C52.2558 17.761 52.4413 17.8745 52.6435 17.949C52.8457 18.0234 53.0606 18.0572 53.2758 18.0485L56.8487 17.9097C57.2836 17.8928 57.7075 18.0492 58.0272 18.3445C58.3469 18.6398 58.5363 19.05 58.5539 19.4849L58.6577 22.1102C58.6662 22.3255 58.6322 22.5404 58.5577 22.7426C58.4831 22.9448 58.3695 23.1303 58.2232 23.2885C58.0769 23.4468 57.9009 23.5746 57.7051 23.6648C57.5094 23.755 57.2978 23.8057 57.0825 23.8141L53.5096 23.9553C53.2942 23.9639 53.0826 24.0148 52.8869 24.1051C52.6912 24.1954 52.5151 24.3234 52.3689 24.4817C52.2226 24.64 52.109 24.8256 52.0344 25.0279C51.9599 25.2302 51.9259 25.4451 51.9345 25.6605Z" fill="var(--fill-0, #009945)"/>
<path id="Vector_5" d="M64.4463 32.0633C64.1973 32.0546 63.9524 31.9969 63.7258 31.8936C63.4991 31.7902 63.295 31.6432 63.1251 31.4609C62.9553 31.2787 62.823 31.0647 62.7359 30.8313C62.6488 30.5979 62.6085 30.3496 62.6173 30.1006L63.7074 1.83015C63.7257 1.32752 63.9426 0.852663 64.3105 0.509778C64.6785 0.166892 65.1675 -0.016008 65.6701 0.00120984L71.212 0.197478C74.5898 0.316657 76.9172 1.06674 78.194 2.44771C79.4708 3.82869 80.0442 6.36729 79.9141 10.0635C79.7858 13.7089 79.0295 16.1762 77.6452 17.4655C76.2608 18.7548 73.8923 19.3403 70.5394 19.222C70.3468 19.2166 70.1599 19.2875 70.0194 19.4194C69.8789 19.5512 69.7962 19.7333 69.7893 19.9258L69.3293 30.3331C69.3207 30.5822 69.2631 30.8271 69.1598 31.0539C69.0565 31.2806 68.9095 31.4848 68.7272 31.6547C68.5449 31.8245 68.3309 31.9568 68.0974 32.0439C67.8639 32.1309 67.6156 32.1711 67.3666 32.1621L64.4463 32.0633ZM70.7507 13.2476C71.7216 13.2826 72.3429 13.0855 72.6146 12.6563C72.8863 12.2271 73.0472 11.2841 73.0972 9.82724C73.1497 8.36875 73.0555 7.41616 72.8146 6.96944C72.5738 6.52273 71.9691 6.2827 71.0007 6.24937C70.8081 6.2433 70.621 6.31386 70.4804 6.44557C70.3398 6.57728 70.2571 6.75938 70.2506 6.95194L70.0544 12.4925C70.049 12.6851 70.1199 12.872 70.2517 13.0126C70.3836 13.1531 70.5656 13.2357 70.7582 13.2426L70.7507 13.2476Z" fill="var(--fill-0, #009945)"/>
<path id="Vector_6" d="M17.602 51.8797L18.8022 67.1563C18.8256 67.4524 18.7904 67.7502 18.6987 68.0327C18.6071 68.3152 18.4606 68.5769 18.2678 68.8028C18.075 69.0287 17.8396 69.2144 17.575 69.3493C17.3104 69.4842 17.0218 69.5657 16.7257 69.5891L14.543 69.7603C13.946 69.8055 13.3555 69.6122 12.9009 69.2227C12.4463 68.8332 12.1646 68.2794 12.1177 67.6826L9.7087 37.0969C9.6621 36.4989 9.85472 35.9068 10.2443 35.4507C10.6338 34.9946 11.1885 34.7117 11.7864 34.6641L20.8036 33.9566C21.3823 33.911 21.9555 34.0972 22.3969 34.4742C22.8384 34.8512 23.112 35.3881 23.1576 35.9668L23.2951 37.717C23.3403 38.2957 23.1538 38.8686 22.7766 39.3099C22.3994 39.7511 21.8624 40.0244 21.2837 40.0697L17.7208 40.3497C17.4506 40.3711 17.2 40.4988 17.024 40.7049C16.8479 40.9109 16.7609 41.1784 16.7819 41.4486L16.962 43.7388C16.9833 44.009 17.1111 44.2596 17.3171 44.4357C17.5232 44.6117 17.7906 44.6987 18.0608 44.6777L21.4062 44.4152C21.9832 44.3695 22.5547 44.5544 22.9957 44.9293C23.4367 45.3042 23.7111 45.8386 23.7589 46.4154L23.8964 48.1656C23.942 48.7443 23.7558 49.3174 23.3788 49.7589C23.0018 50.2003 22.465 50.4739 21.8862 50.5196L18.5409 50.7821C18.2708 50.8031 18.0202 50.9306 17.8441 51.1365C17.6681 51.3423 17.581 51.6097 17.602 51.8797Z" fill="var(--fill-0, #009945)"/>
<path id="Vector_7" d="M36.5874 38.8803C37.535 38.8695 38.0988 39.2887 38.2788 40.138L42.4805 63.3642C42.558 63.7517 42.5067 64.063 42.3267 64.2955C42.1467 64.528 41.8629 64.6468 41.4729 64.6518L36.9874 64.7018C36.2823 64.711 35.8656 64.3388 35.7373 63.5854L35.371 61.2902C35.332 61.0486 35.2076 60.8289 35.0204 60.6713C34.8332 60.5137 34.5956 60.4285 34.3509 60.4313L32.3907 60.4526C32.1459 60.4554 31.9102 60.5461 31.7266 60.7081C31.5431 60.8701 31.4238 61.0926 31.3906 61.3352L31.0718 63.6417C30.9593 64.3968 30.5501 64.7785 29.8441 64.7868L25.3587 64.8368C24.9686 64.8368 24.6824 64.7293 24.4973 64.4993C24.3123 64.2692 24.2473 63.9617 24.3223 63.5717L27.9952 40.253C28.1552 39.4004 28.7094 38.9687 29.6579 38.9578L36.5874 38.8803ZM33.5395 54.5995C33.6864 54.5984 33.8313 54.5657 33.9644 54.5034C34.0974 54.4412 34.2154 54.351 34.3104 54.2389C34.4054 54.1269 34.475 53.9956 34.5146 53.8542C34.5541 53.7127 34.5627 53.5644 34.5396 53.4194L33.2683 45.4135H33.1207L32.0331 53.4481C32.0136 53.5935 32.0255 53.7414 32.0682 53.8817C32.1108 54.022 32.1831 54.1516 32.2803 54.2615C32.3774 54.3714 32.497 54.4592 32.631 54.5188C32.765 54.5784 32.9103 54.6085 33.057 54.607L33.5395 54.5995Z" fill="var(--fill-0, #009945)"/>
<path id="Vector_8" d="M54.3044 43.3449C57.6697 43.6624 59.9616 44.5446 61.1801 45.9914C62.3985 47.4382 62.8411 49.9289 62.5077 53.4634C62.1744 57.0296 60.9976 59.3778 58.9774 60.5079C58.7695 60.6246 58.6091 60.8105 58.5242 61.0332C58.4392 61.2559 58.435 61.5013 58.5123 61.7268L60.7988 68.4338C61.143 69.443 60.843 69.9014 59.8987 69.8089L55.4682 69.3901C55.0082 69.3468 54.6748 69.248 54.4681 69.0938C54.2614 68.9396 54.0948 68.6479 53.9681 68.2187L51.9779 61.5718C51.9652 61.5302 51.9406 61.4933 51.907 61.4657C51.8734 61.4381 51.8324 61.4211 51.7891 61.4168C51.7314 61.4116 51.674 61.4294 51.6295 61.4664C51.585 61.5035 51.557 61.5566 51.5516 61.6143L51.064 66.7711C51.0371 67.0573 50.954 67.3354 50.8195 67.5894C50.685 67.8435 50.5017 68.0686 50.2802 68.2518C50.0587 68.435 49.8033 68.5727 49.5285 68.6571C49.2537 68.7416 48.9649 68.771 48.6788 68.7438L46.3535 68.54C45.7757 68.4852 45.2432 68.2032 44.8733 67.7559C44.5033 67.3086 44.3262 66.7327 44.3808 66.1548L46.3998 44.8013C46.4546 44.2236 46.7364 43.6914 47.1835 43.3215C47.6305 42.9516 48.2061 42.7743 48.7838 42.8286L54.3044 43.3449ZM53.123 55.8362C54.0664 55.9262 54.7048 55.7595 55.0382 55.3361C55.3716 54.9128 55.5978 54.0731 55.717 52.8171C55.8362 51.5586 55.7716 50.6915 55.5232 50.2156C55.2749 49.7397 54.6786 49.4576 53.7343 49.3693C53.4651 49.3438 53.1968 49.4264 52.9884 49.5987C52.78 49.7709 52.6486 50.0189 52.6229 50.2881L52.2041 54.7186C52.1914 54.8521 52.2051 54.9867 52.2444 55.1149C52.2838 55.2431 52.348 55.3623 52.4335 55.4656C52.519 55.569 52.624 55.6545 52.7425 55.7172C52.861 55.7799 52.9907 55.8186 53.1242 55.8312L53.123 55.8362Z" fill="var(--fill-0, #009945)"/>
<path id="Vector_9" d="M74.335 54.3111L73.8537 53.1685C73.4212 52.1421 71.891 52.4509 71.891 53.5648V59.2716C71.891 59.8522 71.6604 60.409 71.2499 60.8195C70.8394 61.23 70.2826 61.4606 69.702 61.4606H67.5143C66.9338 61.4606 66.377 61.23 65.9665 60.8195C65.556 60.409 65.3253 59.8522 65.3253 59.2716V37.8244C65.3253 37.2438 65.556 36.6871 65.9665 36.2765C66.377 35.866 66.9338 35.6354 67.5143 35.6354H70.3959C71.1735 35.6354 71.696 35.9517 71.9635 36.5843L74.6376 42.7887C74.7162 42.9721 74.847 43.1285 75.0136 43.2384C75.1803 43.3483 75.3755 43.4069 75.5752 43.4069C75.7748 43.4069 75.97 43.3483 76.1367 43.2384C76.3034 43.1285 76.4341 42.9721 76.5128 42.7887L79.1868 36.5793C79.4543 35.9467 79.9769 35.6304 80.7545 35.6304H83.6298C84.2103 35.6304 84.7671 35.861 85.1776 36.2715C85.5881 36.6821 85.8187 37.2388 85.8187 37.8194V59.2716C85.8187 59.8522 85.5881 60.409 85.1776 60.8195C84.7671 61.23 84.2103 61.4606 83.6298 61.4606H81.442C80.8615 61.4606 80.3047 61.23 79.8942 60.8195C79.4837 60.409 79.2531 59.8522 79.2531 59.2716V53.5648C79.2531 52.4509 77.7229 52.1421 77.2904 53.1685L76.809 54.3111C76.5415 54.9679 76.1281 55.2962 75.5689 55.2962C75.0097 55.2962 74.5984 54.9679 74.335 54.3111Z" fill="var(--fill-0, #009945)"/>
</g>
</svg>
