<svg preserveAspectRatio="none" width="100%" height="100%" overflow="visible" style="display: block;" viewBox="0 0 94.1488 94.1488" fill="none" xmlns="http://www.w3.org/2000/svg">
<g id="Group 17">
<path id="Star 6" d="M40.2775 2.88981C43.9897 -0.963271 50.1591 -0.963271 53.8713 2.88981V2.88981C56.2982 5.40879 59.9192 6.37902 63.2804 5.41096V5.41096C68.4218 3.93019 73.7647 7.01493 75.053 12.2079V12.2079C75.8953 15.6028 78.546 18.2536 81.9409 19.0958V19.0958C87.1339 20.3841 90.2186 25.727 88.7379 30.8684V30.8684C87.7698 34.2296 88.74 37.8506 91.259 40.2775V40.2775C95.1121 43.9897 95.1121 50.1591 91.259 53.8713V53.8713C88.74 56.2982 87.7698 59.9192 88.7379 63.2804V63.2804C90.2186 68.4218 87.1339 73.7647 81.9409 75.053V75.053C78.546 75.8953 75.8953 78.546 75.053 81.9409V81.9409C73.7647 87.1339 68.4218 90.2186 63.2804 88.7379V88.7379C59.9192 87.7698 56.2982 88.74 53.8713 91.259V91.259C50.1591 95.1121 43.9897 95.1121 40.2775 91.259V91.259C37.8506 88.74 34.2296 87.7698 30.8684 88.7379V88.7379C25.727 90.2186 20.3841 87.1339 19.0958 81.9409V81.9409C18.2536 78.546 15.6028 75.8953 12.2079 75.053V75.053C7.01493 73.7647 3.93019 68.4218 5.41096 63.2804V63.2804C6.37902 59.9192 5.40879 56.2982 2.88981 53.8713V53.8713C-0.963271 50.1591 -0.963271 43.9897 2.88981 40.2775V40.2775C5.40879 37.8506 6.37902 34.2296 5.41096 30.8684V30.8684C3.93019 25.727 7.01493 20.3841 12.2079 19.0958V19.0958C15.6028 18.2536 18.2536 15.6028 19.0958 12.2079V12.2079C20.3841 7.01493 25.727 3.93019 30.8684 5.41096V5.41096C34.2296 6.37902 37.8506 5.40879 40.2775 2.88981V2.88981Z" fill="var(--fill-0, #2A6F2B)"/>
</g>
</svg>
